# xmcd
#
# Track frame offsets:
#	150
#	5653
#	58380
#	88560
#	132843
#	223047
#	249777
#
# Disc length: 3742 seconds
#
# Revision: 1
# Processed by: cddbd v1.5.2PL0 Copyright (c) Steve Scherf et al.
# Submitted via: audiograbber 1.83.01
#
DISCID=5c0e9c07
DTITLE=The Allma Brother Band - New Orleans Jazz Festvai Disk 2
DYEAR=2010
DGENRE=Rock 
TTITLE0=Crowd noise
TTITLE1=Dreams
TTITLE2=And it stoned me
TTITLE3=No one left to run with me
TTITLE4=Whipping post 
TTITLE5=Melissa
TTITLE6=One way out
EXTD=
EXTT0=
EXTT1=
EXTT2=
EXTT3=
EXTT4=
EXTT5=
EXTT6=
PLAYORDER=
